<?xml version="1.0" standalone="no"?>
<!DOCTYPE svg PUBLIC "-//W3C//DTD SVG 20010904//EN"
 "http://www.w3.org/TR/2001/REC-SVG-20010904/DTD/svg10.dtd">
<svg version="1.0" xmlns="http://www.w3.org/2000/svg"
 width="500.000000pt" height="500.000000pt" viewBox="0 0 500.000000 500.000000"
 preserveAspectRatio="xMidYMid meet">

<g transform="translate(0.000000,500.000000) scale(0.100000,-0.100000)"
fill="#000000" stroke="none">
<path d="M0 2500 l0 -2500 1863 1 c1734 2 1849 3 1680 17 -101 8 -183 18 -183
21 0 3 57 3 127 -1 71 -3 173 -6 228 -6 l100 0 -105 13 c-58 7 -158 19 -222
25 -65 7 -118 17 -118 22 0 5 15 7 33 4 56 -9 446 -38 458 -34 6 2 -101 19
-240 38 -138 18 -251 38 -251 43 0 5 12 6 28 3 15 -3 52 -8 82 -11 30 -3 117
-12 192 -21 224 -25 199 -12 -55 30 -130 22 -237 44 -237 49 0 5 12 6 28 3 65
-13 456 -66 465 -63 6 2 -100 25 -236 52 -136 27 -247 53 -247 57 0 5 10 6 23
3 12 -2 114 -20 227 -40 113 -19 219 -38 235 -41 17 -4 27 -4 24 0 -3 3 -113
31 -245 61 -256 59 -269 63 -262 70 3 3 103 -15 224 -40 282 -59 280 -59 274
-52 -3 3 -111 33 -240 68 -129 34 -237 64 -239 66 -15 12 15 9 84 -8 273 -66
418 -99 421 -96 2 1 -108 36 -244 77 -256 76 -258 77 -251 85 4 3 392 -99 489
-130 14 -4 22 -5 19 -1 -3 3 -117 44 -253 90 -137 46 -244 86 -240 88 5 3 115
-28 244 -68 129 -40 239 -72 243 -71 5 1 -100 43 -233 92 -133 50 -236 91
-228 93 7 1 119 -34 247 -78 129 -44 236 -79 237 -77 2 2 -53 27 -124 55 -205
83 -344 141 -350 147 -13 13 29 -1 252 -85 132 -50 241 -89 242 -87 2 2 -72
36 -164 77 -262 115 -315 140 -310 145 3 3 114 -40 248 -95 134 -55 246 -100
249 -100 6 1 -276 140 -411 203 -74 34 -95 58 -25 28 71 -31 432 -193 440
-198 4 -2 7 -2 7 1 0 2 -106 60 -236 127 -130 68 -232 125 -226 127 6 2 66
-25 134 -59 150 -75 328 -159 328 -154 0 2 -99 59 -220 127 -121 67 -220 127
-220 131 0 5 42 -14 93 -41 212 -114 367 -193 367 -189 0 2 -99 64 -220 137
-121 73 -218 135 -215 138 3 4 360 -193 465 -257 71 -42 -10 17 -110 80 -242
156 -330 214 -330 221 0 5 93 -49 208 -118 114 -70 210 -128 215 -131 4 -2 7
-2 7 1 0 2 -92 69 -205 147 -113 78 -203 145 -200 147 2 3 108 -63 235 -146
126 -83 230 -149 230 -147 0 2 -96 74 -212 160 -117 87 -217 162 -223 168 -28
28 36 -11 161 -99 356 -249 363 -251 72 -20 -109 86 -198 159 -198 162 0 6 45
-26 220 -156 268 -199 267 -194 -8 39 -100 84 -182 155 -182 158 0 3 6 1 13
-4 6 -6 94 -75 195 -154 292 -230 292 -228 -5 40 -95 85 -173 157 -173 159 0
3 8 -2 18 -10 229 -193 378 -316 395 -328 12 -8 -59 66 -158 164 -192 191
-190 191 38 -12 81 -73 150 -132 154 -132 3 0 4 2 2 4 -2 3 -69 71 -149 152
-80 81 -140 145 -133 143 7 -2 78 -66 158 -142 80 -76 145 -135 145 -132 0 4
-46 57 -102 119 -156 169 -155 174 2 21 156 -152 159 -152 28 3 -49 56 -88
106 -87 110 0 4 52 -47 116 -113 118 -122 119 -120 4 26 -81 103 -58 91 44
-23 80 -90 106 -113 63 -55 -13 17 -44 58 -68 90 -65 87 -42 79 35 -13 38 -44
70 -80 72 -80 2 0 -19 34 -48 76 -28 42 -49 78 -46 80 2 3 32 -30 66 -72 33
-42 61 -74 61 -70 0 3 -21 38 -46 77 -25 39 -43 73 -41 76 3 2 26 -24 53 -59
78 -104 82 -104 20 0 -45 75 -41 94 6 27 58 -84 70 -92 33 -22 -21 37 -35 70
-32 73 3 3 26 -25 51 -63 54 -79 58 -77 15 8 -37 73 -31 90 8 24 15 -26 34
-54 41 -63 10 -14 10 -12 2 11 -5 15 -17 41 -25 58 -31 60 -8 52 25 -9 19 -33
36 -60 38 -58 2 2 -8 29 -22 60 -28 62 -30 66 -18 66 4 0 20 -25 36 -55 36
-65 44 -66 16 -1 -32 76 -22 87 15 16 39 -74 45 -70 15 9 -12 29 -18 56 -15
59 6 7 6 7 35 -55 28 -64 37 -63 16 1 -30 87 -16 88 21 3 21 -49 33 -45 14 5
-4 13 -11 36 -15 51 -12 49 10 21 34 -43 27 -72 36 -74 15 -4 -18 59 -20 97
-5 74 6 -8 17 -39 26 -68 21 -72 29 -59 10 16 -18 68 -20 85 -7 78 4 -3 16
-34 26 -68 10 -35 20 -58 22 -51 2 6 0 29 -6 50 -6 21 -11 49 -11 63 0 38 17
6 32 -60 7 -32 13 -46 15 -34 2 11 -1 40 -6 65 -6 24 -6 48 -1 53 4 4 13 -18
20 -50 15 -78 32 -116 24 -54 -3 25 -8 60 -11 77 -3 21 -1 33 6 33 6 0 11 -10
12 -22 0 -13 7 -45 15 -73 l13 -50 -5 75 c-5 87 10 80 23 -10 l8 -55 5 70 c5
67 6 68 13 30 18 -92 26 -103 24 -32 -2 82 9 88 18 9 9 -83 13 -86 14 -9 1 37
5 67 11 67 6 0 10 -24 10 -52 0 -29 5 -60 10 -68 7 -10 10 5 10 53 0 43 4 66
10 62 7 -4 10 642 10 1930 l0 1935 -1888 -1 c-1038 0 -1882 -3 -1877 -4 6 -2
82 -11 170 -20 178 -17 238 -25 232 -31 -2 -2 -84 3 -183 11 -98 8 -224 17
-279 20 l-100 5 95 -15 c52 -8 167 -24 255 -35 180 -24 209 -29 202 -36 -2 -3
-127 9 -277 26 -149 17 -274 30 -276 27 -2 -2 98 -21 224 -41 266 -45 325 -56
319 -63 -4 -4 -456 58 -532 73 -16 4 -27 4 -24 0 3 -3 129 -31 279 -61 243
-49 311 -65 272 -65 -7 0 -127 20 -268 45 -140 25 -262 45 -272 44 -9 0 102
-29 248 -63 390 -92 392 -102 5 -21 -282 59 -281 59 -275 53 3 -3 120 -36 260
-72 294 -78 285 -75 278 -82 -3 -3 -111 21 -239 52 -264 64 -286 69 -278 61 3
-4 75 -27 160 -52 277 -83 351 -106 346 -111 -4 -4 -479 122 -537 142 -9 3
-11 2 -5 -4 7 -7 324 -114 524 -178 8 -2 11 -7 8 -10 -3 -3 -123 31 -267 76
-144 44 -264 79 -266 77 -2 -2 99 -41 224 -87 274 -100 296 -109 290 -115 -2
-3 -121 35 -264 85 -142 49 -262 89 -267 87 -4 -1 110 -49 253 -107 143 -58
260 -108 260 -112 0 -8 -12 -3 -324 116 -110 42 -201 74 -203 72 -4 -3 15 -12
320 -146 103 -45 187 -85 187 -90 0 -4 -118 42 -261 102 -144 60 -263 107
-265 105 -2 -2 36 -22 85 -45 280 -133 423 -203 419 -208 -3 -2 -111 43 -239
102 -129 58 -244 110 -256 115 -63 24 0 -11 225 -127 265 -136 257 -132 251
-138 -2 -2 -118 52 -258 120 -140 68 -256 123 -257 121 -2 -2 109 -66 247
-142 138 -77 246 -141 241 -143 -5 -1 -102 47 -216 108 -369 196 -376 195 -41
-5 260 -156 240 -144 234 -149 -2 -3 -83 40 -179 95 -265 152 -300 171 -300
166 0 -3 100 -69 223 -148 258 -166 231 -148 226 -154 -4 -3 -357 207 -451
269 -16 10 -28 16 -28 13 0 -3 103 -77 229 -164 127 -87 226 -159 222 -161 -5
-2 -107 62 -227 141 -319 209 -319 205 3 -30 110 -82 198 -149 193 -151 -4 -2
-70 41 -146 94 -271 190 -294 205 -294 200 0 -2 95 -79 211 -170 116 -91 205
-166 199 -166 -7 0 -108 72 -226 160 -118 88 -214 158 -214 156 0 -3 92 -82
205 -176 113 -95 205 -176 205 -181 0 -7 -335 252 -412 319 -10 8 -18 13 -18
10 0 -3 90 -85 200 -183 110 -98 200 -182 200 -187 0 -5 -15 3 -34 19 -18 15
-86 73 -151 128 -65 55 -148 124 -184 154 l-66 53 55 -53 c30 -30 122 -118
204 -197 82 -78 145 -142 140 -142 -6 0 -93 75 -195 168 -258 232 -260 233
-34 4 109 -111 197 -204 194 -207 -3 -3 -80 65 -170 152 -288 275 -288 275 -1
-33 73 -78 132 -145 132 -150 0 -5 -89 79 -197 186 -108 107 -169 164 -136
125 33 -38 115 -133 181 -209 67 -77 120 -141 118 -143 -4 -4 -47 41 -246 257
-157 171 -155 169 -145 151 7 -11 274 -342 344 -425 9 -10 11 -17 5 -15 -6 2
-84 90 -174 194 -285 332 -263 296 113 -187 16 -21 25 -38 20 -38 -4 1 -21 18
-38 39 -84 108 -309 382 -318 388 -15 9 -4 -7 98 -147 163 -224 217 -301 214
-304 -2 -2 -80 97 -174 220 -93 122 -171 221 -173 219 -2 -2 66 -108 152 -236
87 -127 156 -233 154 -234 -2 -1 -77 102 -168 231 -91 128 -170 232 -176 230
-6 -3 -18 8 -25 22 -8 15 -42 72 -77 127 -64 104 -58 99 28 -20 70 -98 63 -67
-10 40 -33 48 -59 89 -57 91 2 2 24 -24 50 -59 57 -76 91 -117 81 -97 -4 8
-22 36 -41 61 -47 66 -40 73 13 14 l46 -50 -33 48 c-38 55 -59 76 -59 58 0
-17 -18 -4 -31 22 -12 22 -12 22 10 3 16 -14 21 -16 21 -5 1 8 26 -13 57 -46
30 -33 46 -46 35 -30 -36 52 -102 121 -95 100 5 -16 4 -18 -8 -7 -10 9 -10 15
-1 24 9 9 23 1 64 -37 l52 -50 -46 54 c-36 42 -44 57 -35 67 10 10 23 2 65
-39 64 -63 69 -54 6 13 -57 61 -47 66 16 8 l45 -43 -47 50 c-38 41 -44 52 -33
62 11 10 24 4 67 -29 l53 -41 -55 51 c-30 28 -50 51 -43 52 6 0 15 9 18 21 7
22 0 25 80 -27 44 -29 27 -6 -20 26 -40 28 -44 33 -30 46 8 9 15 20 15 25 0 5
33 -7 73 -26 78 -38 74 -32 -11 16 -82 46 -55 46 37 0 44 -23 84 -41 88 -40 5
0 -32 20 -81 45 -48 25 -86 47 -83 50 2 3 39 -11 82 -31 106 -48 108 -43 5 10
-47 24 -82 44 -78 44 4 1 47 -15 94 -35 47 -19 88 -33 90 -31 3 3 -36 22 -85
43 -50 21 -89 40 -86 42 2 2 41 -10 86 -27 45 -17 84 -30 86 -27 2 2 -31 18
-74 36 -112 46 -111 53 2 14 53 -19 94 -30 91 -25 -3 4 -40 21 -83 36 -106 38
-115 50 -14 19 46 -14 85 -23 88 -21 2 3 -29 17 -69 31 -78 28 -61 29 36 2 95
-26 77 -10 -23 20 -50 15 -90 29 -88 31 2 2 41 -6 86 -17 46 -12 88 -19 94
-17 6 2 -30 14 -80 27 -51 14 -90 26 -88 28 2 2 40 -4 85 -13 45 -9 84 -14 87
-12 2 3 -33 15 -79 26 -79 20 -70 21 47 6 56 -7 34 1 -65 25 -58 13 -70 18
-37 15 135 -14 140 -14 57 5 l-85 19 85 -4 c65 -3 76 -2 45 5 -22 5 -232 9
-467 9 l-428 1 0 -2500z m743 1458 c44 -71 53 -85 40 -73 -15 14 -85 125 -79
125 3 0 20 -24 39 -52z m-355 -1266 c2 -358 1 -375 -18 -420 l-21 -46 21 -16
c19 -15 20 -24 18 -170 -3 -152 -3 -155 -25 -158 l-23 -3 0 596 0 596 23 -3
22 -3 3 -373z m70 15 l2 -358 -22 3 -23 3 -3 358 -2 358 22 -3 23 -3 3 -358z
m62 -7 c0 -363 0 -370 -20 -370 -20 0 -20 7 -20 370 0 363 0 370 20 370 20 0
20 -7 20 -370z m70 26 c0 -327 -1 -345 -20 -367 -19 -24 -19 -23 -20 344 0
360 0 367 20 367 20 0 20 -7 20 -344z m70 209 c0 -128 -1 -135 -20 -135 -19 0
-20 7 -20 135 0 128 1 135 20 135 19 0 20 -7 20 -135z m70 0 l0 -135 -25 0
-25 0 0 128 c0 71 3 132 7 135 3 4 15 7 25 7 17 0 18 -11 18 -135z m70 -461
l0 -595 -22 3 -23 3 -3 593 -2 592 25 0 25 0 0 -596z m68 -2 l2 -592 -25 0
-25 0 0 588 c0 324 3 592 7 596 4 4 14 5 23 4 13 -3 15 -70 18 -596z m67 458
c0 -128 -1 -135 -20 -135 -19 0 -20 8 -23 138 l-3 138 23 -3 c23 -3 23 -5 23
-138z m70 0 c0 -128 -1 -135 -20 -135 -19 0 -20 8 -23 138 l-3 138 23 -3 c23
-3 23 -5 23 -138z m65 0 c0 -133 -1 -140 -20 -140 -19 0 -20 7 -20 140 0 133
1 140 20 140 19 0 20 -7 20 -140z m70 0 c0 -133 -1 -140 -20 -140 -19 0 -20 7
-20 140 0 133 1 140 20 140 19 0 20 -7 20 -140z m70 -5 c0 -138 -1 -145 -20
-145 -19 0 -20 7 -20 145 0 138 1 145 20 145 19 0 20 -7 20 -145z m70 -21 l0
-166 -22 14 c-22 15 -23 23 -26 154 -1 76 0 144 2 151 3 7 15 13 26 13 19 0
20 -6 20 -166z m68 -59 l2 -219 -25 49 c-24 47 -25 59 -25 216 0 91 3 169 7
173 4 4 14 5 23 4 13 -3 15 -34 18 -223z m71 -371 l0 -595 -22 3 -22 3 -3 593
-2 592 25 0 24 0 0 -596z m71 409 c0 -185 -1 -189 -25 -218 l-24 -30 -1 218 0
217 25 0 25 0 0 -187z m68 33 c2 -128 0 -151 -14 -167 -10 -11 -21 -19 -26
-19 -4 0 -8 77 -8 171 l0 170 23 -3 c22 -3 22 -6 25 -152z m62 10 c0 -135 -1
-144 -20 -149 -19 -5 -20 0 -20 144 0 142 1 149 20 149 19 0 20 -7 20 -144z
m70 9 c0 -128 -1 -135 -20 -135 -19 0 -20 7 -20 135 0 128 1 135 20 135 19 0
20 -7 20 -135z m70 0 c0 -128 -1 -135 -20 -135 -19 0 -20 7 -20 135 0 128 1
135 20 135 19 0 20 -7 20 -135z m70 -5 c0 -143 -5 -161 -38 -128 -13 13 -18
249 -5 261 3 4 15 7 25 7 17 0 18 -11 18 -140z m70 -275 c0 -228 -2 -415 -5
-415 -3 0 -14 15 -25 33 -18 29 -20 50 -20 229 0 168 2 201 18 228 16 29 16
31 0 41 -16 9 -18 27 -18 148 0 76 3 141 7 144 3 4 15 7 25 7 17 0 18 -19 18
-415z m273 70 c-2 -448 -2 -422 0 -645 l2 -195 -22 -3 -23 -3 0 596 0 596 23
-3 22 -3 -2 -340z m67 188 c0 -141 -2 -161 -20 -188 l-20 -30 0 188 c0 180 1
187 20 187 19 0 20 -7 20 -157z m68 15 c-3 -127 -5 -143 -20 -146 -17 -3 -18
9 -18 142 0 140 1 146 20 146 20 0 20 -5 18 -142z m72 7 c0 -128 -1 -135 -20
-135 -19 0 -20 7 -20 135 0 128 1 135 20 135 19 0 20 -7 20 -135z m70 -1 c0
-135 0 -135 -22 -132 -22 3 -23 7 -26 122 -1 66 0 126 2 133 3 7 15 13 26 13
19 0 20 -6 20 -136z m70 -9 c0 -80 -3 -145 -6 -145 -3 0 -14 5 -25 10 -17 10
-19 22 -19 145 l0 135 25 0 25 0 0 -145z m70 -37 l0 -183 -25 30 c-23 29 -24
36 -25 183 l0 152 25 0 25 0 0 -182z m68 -113 c1 -159 0 -295 -2 -302 -3 -6
-14 -9 -25 -6 -21 5 -21 11 -21 305 l0 299 23 -3 22 -3 3 -290z m67 -300 l0
-590 -23 -3 -22 -3 1 267 c0 148 5 276 10 286 6 10 5 19 -1 23 -6 4 -10 118
-10 311 l0 305 23 -3 22 -3 0 -590z m275 0 c0 -588 0 -595 -20 -595 -20 0 -20
7 -20 595 0 588 0 595 20 595 20 0 20 -7 20 -595z m70 411 c0 -157 -3 -189
-17 -215 -10 -17 -21 -31 -25 -31 -10 0 -11 414 -1 423 3 4 15 7 25 7 17 0 18
-12 18 -184z m70 28 c0 -138 -2 -158 -17 -170 -10 -7 -21 -14 -25 -14 -5 0 -8
77 -8 170 l0 170 25 0 25 0 0 -156z m65 12 c0 -135 -1 -139 -22 -147 l-23 -8
0 150 c0 150 0 150 23 147 22 -3 22 -5 22 -142z m70 9 c0 -127 0 -130 -22
-133 -23 -3 -23 -3 -23 133 0 136 0 136 23 133 22 -3 22 -6 22 -133z m65 0 c0
-128 -1 -135 -20 -135 -19 0 -20 7 -20 135 0 128 1 135 20 135 19 0 20 -7 20
-135z m70 -6 c0 -128 -2 -140 -17 -137 -16 3 -18 19 -21 141 -2 132 -2 137 18
137 19 0 20 -6 20 -141z m70 -276 c0 -417 -1 -418 -20 -393 -18 23 -20 42 -20
240 0 179 3 219 16 238 14 20 14 23 0 28 -14 5 -16 29 -16 155 0 142 1 149 20
149 20 0 20 -7 20 -417z m70 -178 c0 -588 0 -595 -20 -595 -20 0 -20 7 -20
595 0 588 0 595 20 595 20 0 20 -7 20 -595z m70 413 c0 -180 -1 -184 -25 -213
l-24 -30 -1 206 c0 113 3 209 7 212 3 4 15 7 25 7 17 0 18 -12 18 -182z m70
31 c0 -133 -2 -153 -17 -165 -10 -7 -21 -14 -25 -14 -5 0 -8 74 -8 165 l0 165
25 0 25 0 0 -151z m70 16 c0 -123 -2 -135 -19 -145 -11 -5 -22 -10 -25 -10 -3
0 -6 65 -6 145 l0 145 25 0 25 0 0 -135z m65 0 c0 -127 0 -130 -22 -133 -23
-3 -23 -3 -23 133 0 136 0 136 23 133 22 -3 22 -6 22 -133z m65 0 c0 -128 -1
-135 -20 -135 -19 0 -20 7 -20 135 0 128 1 135 20 135 19 0 20 -7 20 -135z
m70 -9 c0 -139 -1 -144 -20 -139 -19 5 -20 14 -20 144 0 132 1 139 20 139 19
0 20 -7 20 -144z m70 -21 c0 -163 0 -165 -20 -153 -19 12 -20 24 -20 165 0
146 1 153 20 153 19 0 20 -7 20 -165z m70 -42 l0 -208 -20 25 c-18 23 -20 42
-20 208 0 175 1 182 20 182 19 0 20 -7 20 -207z m70 -389 l0 -595 -22 3 -23 3
-2 580 c-1 319 0 586 2 593 2 6 14 12 25 12 20 0 20 -4 20 -596z m70 0 l0
-595 -22 3 -23 3 -3 593 -2 592 25 0 25 0 0 -596z m68 224 l-3 -373 -22 -3
-23 -3 0 375 0 376 25 0 25 0 -2 -372z m70 0 l-3 -373 -22 -3 -23 -3 0 375 0
376 25 0 25 0 -2 -372z m60 -220 c-3 -555 -4 -593 -20 -596 -17 -3 -18 30 -18
592 0 590 0 596 20 596 20 0 20 -5 18 -592z m-2608 23 l0 -158 -25 5 -25 4 0
139 c0 118 2 139 15 139 9 0 18 7 21 15 4 8 8 15 10 15 2 0 4 -71 4 -159z
m550 118 c0 -24 -4 -38 -10 -34 -17 10 -11 75 7 75 2 0 3 -18 3 -41z m45 30
c9 -14 -3 -59 -15 -59 -6 0 -10 16 -10 35 0 34 12 46 25 24z m-681 -5 c14 -5
16 -29 16 -160 0 -147 -1 -154 -20 -154 -19 0 -20 7 -20 160 0 88 2 160 4 160
2 0 11 -3 20 -6z m1594 -157 c2 -152 2 -157 -18 -157 -19 0 -20 6 -20 161 0
147 1 160 18 157 15 -3 17 -20 20 -161z m72 14 c0 -140 -1 -149 -20 -154 -19
-5 -20 0 -20 135 0 122 2 143 18 154 9 7 18 14 20 14 1 0 2 -67 2 -149z m420
-17 l0 -155 -22 3 c-23 3 -23 6 -26 155 -2 138 -1 152 15 155 10 3 21 3 26 1
4 -2 7 -74 7 -159z m48 158 c9 -7 12 -45 10 -158 -3 -132 -5 -149 -20 -152
-17 -3 -18 10 -18 157 0 89 3 161 8 161 4 0 13 -4 20 -8z m-2808 -77 c0 -68
-2 -75 -20 -75 -18 0 -20 7 -20 75 0 68 2 75 20 75 18 0 20 -7 20 -75z m70 0
c0 -68 -2 -75 -20 -75 -18 0 -20 7 -20 75 0 68 2 75 20 75 18 0 20 -7 20 -75z
m550 -76 c0 -138 -1 -150 -17 -147 -16 3 -18 19 -21 142 -3 136 1 155 31 156
4 0 7 -68 7 -151z m1590 0 c0 -150 0 -150 -22 -147 -22 3 -23 6 -26 142 -2
105 1 141 10 148 35 22 38 11 38 -143z m-2099 52 c-8 -22 -9 -19 -10 24 0 42
2 46 10 26 6 -15 6 -34 0 -50z m2579 -51 c0 -66 -4 -120 -9 -120 -20 0 -44 89
-38 141 6 45 28 99 42 99 3 0 5 -54 5 -120z m186 85 c18 -45 18 -138 -1 -175
-9 -17 -18 -30 -20 -30 -3 0 -5 54 -5 120 0 66 2 120 6 120 3 0 12 -16 20 -35z
m-736 -85 c0 -118 -10 -137 -37 -73 -18 45 -13 121 11 157 9 14 19 26 21 26 3
0 5 -49 5 -110z m-1592 -57 l-3 -58 -18 37 c-22 47 -22 98 0 146 l17 37 4 -52
c2 -29 2 -78 0 -110z m972 102 c0 -40 -4 -55 -14 -55 -7 0 -17 -10 -22 -22 -6
-19 -8 -16 -11 19 -3 31 2 51 19 77 13 20 24 36 26 36 1 0 2 -25 2 -55z m-350
-39 c0 -7 -9 -21 -20 -31 -20 -18 -20 -17 -20 46 l0 64 20 -33 c11 -18 20 -38
20 -46z m280 -26 c0 -33 -11 -38 -30 -15 -10 12 -10 18 0 30 19 23 30 18 30
-15z m-1170 -285 l0 -305 -25 0 -25 0 0 263 c0 253 1 264 22 305 13 23 24 42
25 42 2 0 3 -137 3 -305z m1030 158 c0 -27 -4 -34 -17 -31 -19 3 -29 47 -19
75 10 26 36 -5 36 -44z m-1100 -209 l0 -255 -22 3 -23 3 -3 235 c-2 234 -2
235 20 252 13 10 24 18 26 18 1 0 2 -115 2 -256z m-70 -19 c0 -228 -1 -235
-20 -235 -19 0 -20 7 -20 235 0 228 1 235 20 235 19 0 20 -7 20 -235z m1450
215 c0 -11 -4 -20 -9 -20 -14 0 -23 18 -16 30 10 17 25 11 25 -10z m-1590
-220 c0 -223 -1 -230 -20 -230 -19 0 -20 7 -20 230 0 223 1 230 20 230 19 0
20 -7 20 -230z m70 0 c0 -223 -1 -230 -20 -230 -19 0 -20 7 -20 230 0 223 1
230 20 230 19 0 20 -7 20 -230z m1280 220 c0 -5 -2 -10 -4 -10 -3 0 -8 5 -11
10 -3 6 -1 10 4 10 6 0 11 -4 11 -10z m-951 -34 c20 -32 21 -46 19 -223 -3
-180 -4 -188 -23 -188 -19 0 -20 8 -23 223 -1 122 0 222 2 222 2 0 14 -15 25
-34z m1601 -219 l0 -198 -22 3 c-23 3 -23 3 -25 228 l-3 225 25 -30 c25 -30
25 -32 25 -228z m1030 28 c0 -218 -1 -225 -20 -225 -19 0 -20 7 -20 194 0 167
2 199 18 225 9 17 18 31 20 31 1 0 2 -101 2 -225z m-480 -33 l0 -193 -22 3
c-23 3 -23 3 -25 223 l-3 220 25 -30 c25 -30 25 -33 25 -223z m-2890 7 l0
-200 -22 3 c-23 3 -23 6 -26 165 -2 155 -1 164 20 198 13 19 24 35 26 35 1 0
2 -90 2 -201z m814 142 c14 -16 16 -40 14 -177 -3 -156 -3 -159 -25 -162 l-23
-3 0 180 c0 100 4 181 8 181 5 0 16 -8 26 -19z m1579 5 c15 -12 17 -33 17
-180 l0 -167 -22 3 c-23 3 -23 5 -26 181 -1 97 1 177 5 177 5 0 16 -7 26 -14z
m907 -166 c0 -173 -1 -180 -20 -180 -19 0 -20 7 -20 166 0 147 2 168 18 180 9
7 18 14 20 14 1 0 2 -81 2 -180z m-359 160 c18 -10 19 -23 19 -176 l0 -165
-22 3 c-23 3 -23 5 -26 176 -1 94 0 172 3 172 4 0 15 -5 26 -10z m-1771 -171
l0 -170 -22 3 c-23 3 -23 6 -26 158 -2 137 -1 156 15 167 9 7 20 13 25 13 4 0
8 -77 8 -171z m340 -9 c0 -153 -1 -160 -20 -160 -19 0 -20 7 -20 170 0 168 0
171 20 160 19 -10 20 -21 20 -170z m280 9 l0 -170 -22 3 c-23 3 -23 6 -26 153
-3 143 -2 151 19 168 12 9 23 17 25 17 2 0 4 -77 4 -171z m960 1 c0 -163 -1
-170 -20 -170 -19 0 -20 7 -20 158 0 152 5 182 32 182 4 0 8 -76 8 -170z
m-894 115 c3 -11 3 -78 2 -150 -3 -126 -4 -130 -25 -133 l-23 -3 0 165 c0 165
0 166 20 154 12 -7 23 -22 26 -33z m-1926 -125 c0 -153 -1 -160 -20 -160 -19
0 -20 7 -20 154 0 152 2 162 33 165 4 1 7 -71 7 -159z m944 154 c14 -5 16 -29
16 -160 0 -147 -1 -154 -20 -154 -19 0 -20 7 -20 160 0 88 2 160 4 160 2 0 11
-3 20 -6z m1054 -151 c-3 -155 -3 -158 -25 -161 -23 -3 -23 -3 -23 137 0 142
8 181 38 181 10 0 12 -34 10 -157z m535 144 c16 -11 17 -30 15 -157 -3 -142
-3 -145 -25 -148 l-23 -3 0 160 c0 89 4 161 8 161 5 0 16 -6 25 -13z m-2750
-10 c15 -11 17 -29 15 -152 -3 -137 -4 -140 -25 -143 l-23 -3 0 155 c0 86 4
156 8 156 5 0 16 -6 25 -13z m1387 -143 l0 -155 -22 3 c-22 3 -23 6 -26 143
-2 123 0 141 15 152 9 7 20 13 25 13 4 0 8 -70 8 -156z m1580 1 c0 -148 -1
-155 -20 -155 -19 0 -20 7 -20 149 0 146 2 157 33 160 4 1 7 -69 7 -154z m338
147 c9 -7 12 -44 10 -153 -3 -141 -4 -144 -25 -147 l-23 -3 0 155 c0 159 3
170 38 148z m212 -147 c0 -148 -1 -155 -20 -155 -19 0 -20 7 -20 148 0 82 3
152 7 155 3 4 12 7 20 7 10 0 13 -32 13 -155z m-3370 -5 c0 -143 -1 -150 -20
-150 -19 0 -20 7 -20 144 0 129 2 145 18 149 9 3 18 5 20 6 1 0 2 -66 2 -149z
m350 0 l0 -150 -25 0 -25 0 0 150 0 150 25 0 25 0 0 -150z m65 0 c0 -143 0
-145 -22 -148 -23 -3 -23 -3 -23 148 0 151 0 151 23 148 22 -3 22 -5 22 -148z
m669 144 c14 -5 16 -28 16 -150 0 -137 -1 -144 -20 -144 -19 0 -20 7 -20 150
0 83 2 150 4 150 2 0 11 -3 20 -6z m634 -147 c2 -142 2 -147 -18 -147 -19 0
-20 6 -20 151 0 138 1 150 18 147 15 -3 17 -20 20 -151z m142 2 c0 -150 0
-150 -22 -147 -22 3 -23 7 -26 137 -1 74 0 141 2 148 3 7 15 13 26 13 19 0 20
-6 20 -151z m818 143 c9 -7 12 -43 10 -148 -3 -136 -4 -139 -25 -142 -23 -3
-23 -3 -23 147 0 154 3 165 38 143z m1040 -139 c-3 -140 -4 -148 -23 -148 -19
0 -20 8 -23 148 l-3 147 26 0 26 0 -3 -147z m70 0 c-3 -145 -3 -148 -25 -151
-23 -3 -23 -3 -23 147 l0 151 25 0 26 0 -3 -147z m-3858 -8 c0 -138 -1 -145
-20 -145 -19 0 -20 7 -20 145 0 138 1 145 20 145 19 0 20 -7 20 -145z m1240 0
c0 -138 -1 -145 -20 -145 -19 0 -20 7 -20 145 0 138 1 145 20 145 19 0 20 -7
20 -145z m620 0 c0 -138 -1 -145 -20 -145 -19 0 -20 7 -20 145 0 138 1 145 20
145 19 0 20 -7 20 -145z m960 0 c0 -138 -1 -145 -20 -145 -19 0 -20 7 -20 145
0 138 1 145 20 145 19 0 20 -7 20 -145z m488 3 c-3 -140 -4 -143 -25 -146 -23
-3 -23 -3 -23 142 l0 146 25 0 26 0 -3 -142z m62 -3 c0 -138 -1 -145 -20 -145
-19 0 -20 7 -20 145 0 138 1 145 20 145 19 0 20 -7 20 -145z"/>
<path d="M670 4699 c26 -17 90 -50 90 -45 0 6 -87 56 -97 56 -4 0 -1 -5 7 -11z"/>
<path d="M656 4682 c15 -14 84 -54 84 -49 0 6 -78 57 -87 57 -4 0 -3 -4 3 -8z"/>
<path d="M641 4632 c46 -35 89 -63 89 -59 0 6 -98 77 -106 77 -4 0 4 -8 17
-18z"/>
<path d="M770 4646 c0 -3 9 -10 20 -16 11 -6 20 -8 20 -6 0 3 -9 10 -20 16
-11 6 -20 8 -20 6z"/>
<path d="M613 4623 c3 -5 27 -23 54 -42 l48 -33 -35 31 c-37 33 -76 59 -67 44z"/>
<path d="M580 4587 c0 -1 21 -20 48 -42 43 -35 45 -36 17 -6 -26 29 -65 58
-65 48z"/>
<path d="M558 4504 c35 -46 62 -71 62 -57 0 5 -21 29 -47 53 l-47 45 32 -41z"/>
<path d="M615 4400 c10 -11 20 -20 23 -20 3 0 -3 9 -13 20 -10 11 -20 20 -23
20 -3 0 3 -9 13 -20z"/>
<path d="M4841 854 c0 -11 3 -14 6 -6 3 7 2 16 -1 19 -3 4 -6 -2 -5 -13z"/>
<path d="M4870 859 c0 -5 5 -41 11 -80 13 -82 7 -114 -9 -49 l-12 45 4 -43 c6
-64 -10 -41 -24 35 -8 38 -15 63 -17 57 -2 -6 3 -40 11 -77 19 -92 4 -85 -18
9 -10 41 -20 73 -22 71 -3 -3 2 -35 11 -71 8 -37 15 -73 15 -79 -1 -22 -17 17
-30 71 -7 29 -14 51 -17 49 -4 -4 6 -50 24 -111 3 -11 1 -16 -5 -13 -5 4 -15
27 -22 52 -7 25 -15 44 -17 41 -2 -2 2 -27 11 -55 23 -78 3 -61 -23 20 -12 39
-25 69 -27 66 -2 -2 5 -30 16 -63 11 -32 19 -66 17 -74 -2 -8 -11 9 -21 38
-10 29 -20 51 -22 49 -2 -2 3 -23 11 -47 22 -62 9 -63 -16 -1 -12 28 -24 50
-26 48 -2 -2 6 -26 17 -52 29 -69 17 -68 -19 1 -37 72 -40 67 -7 -9 22 -49 23
-56 9 -61 -19 -8 -13 -14 -57 64 -44 79 -47 72 -5 -11 41 -83 30 -86 -16 -5
-20 36 -39 66 -42 66 -2 0 11 -29 31 -64 44 -79 48 -110 5 -41 -17 28 -36 55
-42 60 -12 12 -5 -2 30 -58 13 -21 23 -43 21 -49 -3 -7 -18 12 -36 40 -17 29
-34 52 -37 52 -3 0 9 -23 26 -51 45 -72 29 -72 -20 0 -23 34 -44 61 -47 61 -2
0 14 -27 37 -61 52 -77 44 -88 -11 -15 -58 77 -62 71 -5 -8 39 -55 43 -65 28
-70 -13 -5 -32 8 -71 51 l-54 58 51 -63 c41 -51 48 -66 38 -77 -10 -11 -22 -4
-72 43 l-60 57 54 -57 c30 -32 52 -60 49 -63 -3 -3 -34 20 -69 51 l-64 58 62
-65 c50 -52 59 -66 48 -76 -11 -10 -23 -4 -62 29 l-48 42 45 -47 c53 -56 45
-61 -19 -11 l-46 36 50 -46 c60 -55 52 -59 -19 -10 -49 34 -34 18 29 -32 48
-38 10 -28 -45 12 -27 20 -50 34 -50 31 0 -3 23 -22 52 -43 28 -21 46 -40 39
-42 -6 -2 -9 -8 -5 -13 9 -15 -7 -10 -53 16 -23 14 -43 24 -43 21 0 -3 20 -17
45 -32 62 -36 48 -44 -15 -10 -63 34 -66 27 -4 -9 56 -33 52 -45 -5 -15 -23
11 -41 18 -41 15 0 -2 18 -14 41 -25 46 -24 48 -36 3 -20 -27 9 -27 9 -10 -5
10 -8 23 -16 28 -17 6 -2 4 -15 -3 -31 -9 -21 -17 -26 -33 -21 -21 6 -21 6 -1
-10 25 -20 18 -20 -35 -1 -24 8 -45 13 -47 11 -2 -2 13 -9 34 -16 45 -15 72
-36 33 -26 -64 16 -71 15 -25 -4 l50 -20 -45 4 -45 4 38 -11 c34 -10 51 -27
26 -27 -5 0 -7 -5 -4 -11 5 -7 -6 -9 -32 -5 l-38 5 40 -14 40 -15 -55 4 -55 4
45 -10 c54 -13 59 -16 40 -28 -13 -9 -13 -10 0 -11 8 -1 -1 -5 -20 -9 l-35 -7
33 -2 c17 0 32 -4 32 -8 0 -5 -24 -7 -52 -6 l-53 1 50 -8 c28 -4 220 -9 428
-9 l377 -1 -2 418 c-1 229 -3 387 -5 350 -5 -98 -23 -84 -25 20 l-2 87 -5 -90
-6 -90 -8 80 c-12 111 -18 118 -12 12 3 -58 2 -86 -5 -82 -5 3 -10 25 -11 48
0 23 -4 60 -8 82 -8 34 -9 36 -9 10 0 -16 3 -56 7 -88 4 -32 4 -60 0 -62 -3
-3 -12 36 -18 85 -7 50 -15 90 -17 90 -2 0 -4 -5 -4 -11z"/>
<path d="M4852 805 c0 -16 2 -22 5 -12 2 9 2 23 0 30 -3 6 -5 -1 -5 -18z"/>
<path d="M4680 795 c0 -5 5 -17 10 -25 5 -8 10 -10 10 -5 0 6 -5 17 -10 25 -5
8 -10 11 -10 5z"/>
<path d="M4611 745 c0 -5 13 -35 29 -65 16 -30 29 -50 29 -45 0 6 -13 35 -29
65 -16 30 -29 51 -29 45z"/>
<path d="M4479 598 c24 -32 45 -58 48 -58 7 0 -59 89 -76 103 -8 7 5 -14 28
-45z"/>
<path d="M4435 568 c27 -32 50 -58 52 -58 10 0 -21 40 -58 75 l-42 40 48 -57z"/>
<path d="M4340 545 c13 -14 26 -25 28 -25 3 0 -5 11 -18 25 -13 14 -26 25 -28
25 -3 0 5 -11 18 -25z"/>
<path d="M4380 517 c0 -2 15 -16 33 -33 l32 -29 -29 33 c-28 30 -36 37 -36 29z"/>
<path d="M4290 415 c0 -7 61 -47 66 -42 3 2 -11 14 -31 25 -19 12 -35 20 -35
17z"/>
<path d="M4260 280 c19 -11 40 -19 45 -19 6 0 -6 8 -25 19 -19 11 -39 19 -45
19 -5 0 6 -8 25 -19z"/>
<path d="M4240 260 c19 -11 42 -19 50 -19 8 0 -5 8 -29 19 -55 25 -67 25 -21
0z"/>
<path d="M4220 240 c8 -5 20 -10 25 -10 6 0 3 5 -5 10 -8 5 -19 10 -25 10 -5
0 -3 -5 5 -10z"/>
<path d="M4155 151 c11 -4 36 -11 55 -15 24 -4 29 -3 15 3 -11 4 -36 11 -55
15 -24 4 -29 3 -15 -3z"/>
<path d="M3873 93 c9 -2 23 -2 30 0 6 3 -1 5 -18 5 -16 0 -22 -2 -12 -5z"/>
<path d="M4118 73 c7 -3 16 -2 19 1 4 3 -2 6 -13 5 -11 0 -14 -3 -6 -6z"/>
<path d="M4173 63 c9 -2 25 -2 35 0 9 3 1 5 -18 5 -19 0 -27 -2 -17 -5z"/>
<path d="M4133 43 c9 -2 25 -2 35 0 9 3 1 5 -18 5 -19 0 -27 -2 -17 -5z"/>
<path d="M3843 23 c15 -2 37 -2 50 0 12 2 0 4 -28 4 -27 0 -38 -2 -22 -4z"/>
</g>
</svg>
